<svg width="150" height="150" viewBox="0 0 150 150" fill="none" xmlns="http://www.w3.org/2000/svg">
<path d="M116.25 70L41.25 13.75C40.3214 13.0536 39.2173 12.6295 38.0613 12.5253C36.9053 12.421 35.7431 12.6408 34.7049 13.1598C33.6668 13.6789 32.7936 14.4768 32.1834 15.4642C31.5732 16.4515 31.25 17.5893 31.25 18.75V131.25C31.2535 132.404 31.5765 133.535 32.1833 134.517C32.79 135.498 33.6568 136.293 34.6875 136.812C35.6864 137.278 36.7906 137.471 37.8882 137.373C38.9858 137.274 40.0378 136.886 40.9375 136.25L115.937 80C116.714 79.4178 117.344 78.6629 117.778 77.7951C118.212 76.9272 118.437 75.9703 118.437 75C118.437 74.0297 118.212 73.0728 117.778 72.2049C117.344 71.3371 116.714 70.5822 115.937 70H116.25Z" fill="#00B4ED"/>
</svg>
