<svg width="150" height="150" viewBox="0 0 150 150" fill="none" xmlns="http://www.w3.org/2000/svg">
<g clip-path="url(#clip0_14_9)">
<path d="M75 150C33.5815 150 0 116.418 0 75C0 33.5818 33.5815 0 75 0C116.418 0 150 33.5818 150 75C150 116.418 116.418 150 75 150ZM102.85 74.151L60.6627 48.9718C60.3606 48.7884 59.976 48.7793 59.6648 48.9627C59.3628 49.1367 59.1706 49.4613 59.1706 49.8231V75.0026V100.182C59.1706 100.539 59.3628 100.869 59.6648 101.043C59.976 101.221 60.3606 101.212 60.6627 101.034L102.85 75.8496C103.152 75.6779 103.331 75.3463 103.331 75.0029C103.331 74.6522 103.153 74.327 102.85 74.151Z" fill="#00B4ED"/>
</g>
<defs>
<clipPath id="clip0_14_9">
<rect width="150" height="150" fill="white" transform="matrix(1 0 0 -1 0 150)"/>
</clipPath>
</defs>
</svg>
