<svg width="150" height="150" viewBox="0 0 150 150" fill="none" xmlns="http://www.w3.org/2000/svg">
<path d="M33.75 80L108.75 136.25C109.679 136.946 110.783 137.371 111.939 137.475C113.095 137.579 114.257 137.359 115.295 136.84C116.333 136.321 117.206 135.523 117.817 134.536C118.427 133.548 118.75 132.411 118.75 131.25L118.75 18.75C118.747 17.5958 118.423 16.4652 117.817 15.4833C117.21 14.5015 116.343 13.7069 115.312 13.1875C114.314 12.7219 113.209 12.5287 112.112 12.6275C111.014 12.7263 109.962 13.1135 109.062 13.75L34.0625 70C33.2863 70.5822 32.6563 71.3371 32.2223 72.2049C31.7884 73.0728 31.5625 74.0297 31.5625 75C31.5625 75.9703 31.7884 76.9272 32.2223 77.7951C32.6563 78.6629 33.2863 79.4178 34.0625 80H33.75Z" fill="#00B4ED"/>
</svg>
